<mxfile host="app.diagrams.net" modified="2022-02-23T13:24:38.109Z" agent="5.0 (Windows NT 10.0; Win64; x64) AppleWebKit/537.36 (KHTML, like Gecko) Chrome/98.0.4758.9 Safari/537.36" etag="qa2EZ9Z7ostMQtdua1eR" version="16.6.2" type="github">
  <diagram id="q1it15vbxy3ypVRztykm" name="Page-1">
    <mxGraphModel dx="982" dy="534" grid="1" gridSize="10" guides="1" tooltips="1" connect="1" arrows="1" fold="1" page="1" pageScale="1" pageWidth="827" pageHeight="1169" math="0" shadow="0">
      <root>
        <mxCell id="0" />
        <mxCell id="1" parent="0" />
        <mxCell id="AirOeHtYSXglWRQNOKmi-1" value="" style="endArrow=none;html=1;rounded=0;" edge="1" parent="1">
          <mxGeometry width="50" height="50" relative="1" as="geometry">
            <mxPoint x="120" y="680" as="sourcePoint" />
            <mxPoint x="120" y="440" as="targetPoint" />
          </mxGeometry>
        </mxCell>
        <mxCell id="AirOeHtYSXglWRQNOKmi-2" value="" style="endArrow=none;html=1;rounded=0;" edge="1" parent="1">
          <mxGeometry width="50" height="50" relative="1" as="geometry">
            <mxPoint x="280" y="680" as="sourcePoint" />
            <mxPoint x="280" y="440" as="targetPoint" />
          </mxGeometry>
        </mxCell>
      </root>
    </mxGraphModel>
  </diagram>
</mxfile>
